<svg xmlns="http://www.w3.org/2000/svg" viewBox="0 0 512 512">
  <g fill="none" stroke="#E8B55F" stroke-width="16" stroke-linecap="round" stroke-linejoin="round">
    <path d="M256 432c-24-24-24-56-24-88c0-48 8-80 24-112c16 32 24 64 24 112c0 32 0 64-24 88z"/>
    <path d="M256 232 C 280 208, 280 176, 256 152 C 232 176, 232 208, 256 232 Z"/>
    <path d="M192 272 C 152 248, 120 224, 104 200 C 144 200, 184 216, 208 240 Z"/>
    <path d="M320 272 C 360 248, 392 224, 408 200 C 368 200, 328 216, 304 240 Z"/>
    <path d="M208 328 C 168 336, 136 360, 120 384 C 160 376, 192 360, 216 336 Z"/>
    <path d="M304 328 C 344 336, 376 360, 392 384 C 352 376, 320 360, 296 336 Z"/>
  </g>
</svg>
